<?xml version="1.0" standalone="no"?>
<!DOCTYPE svg PUBLIC "-//W3C//DTD SVG 20010904//EN"
 "http://www.w3.org/TR/2001/REC-SVG-20010904/DTD/svg10.dtd">
<svg version="1.0" xmlns="http://www.w3.org/2000/svg"
 width="1024.000000pt" height="1024.000000pt" viewBox="0 0 1024.000000 1024.000000"
 preserveAspectRatio="xMidYMid meet">
<metadata>
Created by potrace 1.14, written by Peter Selinger 2001-2017
</metadata>
<g transform="translate(0.000000,1024.000000) scale(0.100000,-0.100000)"
fill="#000000" stroke="none">
<path d="M5110 9813 c-495 -20 -1030 -138 -1425 -313 -508 -224 -875 -539
-1204 -1030 -256 -383 -342 -582 -393 -914 -40 -262 -27 -653 32 -1013 11 -65
20 -123 20 -129 0 -6 -26 -21 -57 -32 -72 -27 -158 -94 -218 -170 -57 -71
-128 -213 -154 -311 -86 -311 -15 -771 152 -984 l29 -37 -65 -70 c-86 -91
-151 -189 -242 -363 -163 -313 -256 -593 -300 -902 -20 -136 -19 -371 1 -476
54 -289 209 -600 419 -839 l79 -91 2 -107 c2 -185 73 -454 170 -645 174 -346
481 -610 848 -732 167 -55 234 -66 441 -72 211 -6 352 8 555 53 99 22 164 41
381 106 33 10 39 9 95 -29 198 -134 472 -240 709 -273 44 -6 91 -13 105 -15
35 -5 228 13 335 31 193 33 420 100 583 174 l84 38 94 -29 c52 -15 140 -38
196 -50 97 -21 110 -21 317 -10 554 29 1000 119 1255 254 243 128 380 482 364
943 l-5 134 53 29 c104 60 233 201 357 391 103 160 177 330 225 518 24 98 27
123 26 297 0 180 -2 196 -31 305 -75 282 -254 640 -484 968 -80 115 -89 132
-67 132 27 0 119 84 161 147 123 185 170 401 171 773 1 261 -10 342 -65 494
-71 198 -225 352 -380 381 l-37 7 -5 431 c-4 354 -9 463 -26 602 -75 609 -219
1078 -427 1395 -238 363 -763 688 -1421 880 -163 48 -430 103 -603 124 -126
16 -471 37 -545 34 -22 -1 -69 -3 -105 -5z m605 -302 c413 -56 671 -132 966
-282 446 -227 868 -604 1022 -914 95 -190 179 -558 181 -799 l1 -109 -98 -27
c-55 -15 -117 -36 -138 -46 l-40 -17 8 -131 c4 -72 8 -250 8 -396 l0 -265
-129 -33 c-822 -206 -1668 -292 -2627 -264 -532 15 -891 48 -1305 118 -357 60
-820 165 -840 190 -14 17 -38 131 -66 304 -17 111 -21 183 -22 403 l-1 268
-40 37 c-22 20 -64 58 -94 83 l-55 46 34 94 c172 484 491 944 837 1207 361
274 926 485 1448 541 55 6 116 13 135 15 19 2 175 3 345 1 251 -2 340 -7 470
-24z m-2655 -3570 c380 -85 721 -137 1170 -178 245 -22 1037 -25 1310 -5 630
47 868 65 1125 87 298 26 903 85 1103 108 131 15 121 28 93 -118 -52 -272 -71
-603 -42 -725 24 -100 132 -294 257 -460 155 -206 484 -985 581 -1378 21 -83
27 -133 27 -222 1 -108 -1 -120 -32 -197 -62 -153 -192 -338 -364 -517 l-97
-101 -52 89 c-77 136 -151 230 -268 346 -94 93 -144 131 -441 329 -184 123
-345 232 -357 241 l-22 17 81 119 c182 268 322 431 405 473 166 83 355 63 501
-54 23 -19 49 -32 56 -29 17 6 56 94 56 123 0 41 -160 146 -300 196 -248 88
-361 24 -670 -380 -46 -60 -112 -145 -146 -187 l-61 -77 -285 287 c-156 158
-368 377 -470 488 -313 336 -460 461 -662 559 -142 69 -203 85 -353 92 -120 6
-122 5 -188 -26 -112 -52 -222 -151 -445 -401 -136 -152 -334 -352 -420 -424
-65 -54 -481 -356 -712 -516 l-77 -53 -133 138 c-235 245 -499 479 -595 529
-40 20 -104 21 -174 0 -78 -23 -239 -109 -295 -158 l-47 -42 32 -61 c18 -33
46 -73 62 -89 l29 -28 133 68 c95 49 147 70 182 73 50 5 51 4 130 -63 103 -88
430 -413 483 -482 23 -30 42 -60 42 -67 0 -20 -58 -57 -285 -184 -292 -164
-594 -347 -693 -421 -48 -36 -122 -98 -165 -139 l-78 -74 -35 34 c-63 60 -190
237 -242 337 -91 177 -126 312 -126 487 1 102 6 139 33 245 81 314 199 625
345 915 l101 199 79 22 c240 67 410 218 445 394 24 122 35 331 36 641 l0 325
130 -33 c72 -18 209 -51 305 -72z m2302 -1982 c171 -57 337 -167 863 -569 456
-348 626 -467 900 -630 315 -187 499 -322 638 -470 180 -191 257 -372 244
-574 -8 -124 -28 -190 -96 -331 -90 -184 -199 -308 -333 -376 -61 -31 -200
-67 -310 -80 -242 -27 -684 -8 -1051 46 l-158 23 -69 -39 c-237 -137 -521
-211 -810 -211 -316 0 -555 72 -810 246 -65 44 -119 75 -129 72 -391 -112
-583 -142 -861 -133 -186 6 -290 23 -437 72 -372 124 -657 422 -759 791 -22
81 -30 262 -14 333 50 226 184 326 830 619 709 322 843 405 1309 810 274 238
386 314 544 367 166 55 399 71 509 34z"/>
<path d="M3621 8883 c-81 -49 -264 -198 -393 -321 -150 -144 -248 -283 -317
-450 -29 -70 -29 -72 -10 -82 10 -6 43 -30 72 -54 29 -23 65 -51 80 -61 l27
-17 46 98 c120 259 142 298 204 359 33 32 160 143 282 245 122 102 224 191
226 199 6 19 -105 121 -132 121 -12 0 -50 -17 -85 -37z"/>
<path d="M6921 8737 c-12 -12 -15 -145 -3 -163 22 -35 326 -167 371 -162 18 2
27 13 38 42 7 22 11 48 7 58 -11 36 -223 167 -350 217 -38 15 -54 17 -63 8z"/>
<path d="M6904 8326 c-10 -41 18 -118 52 -141 17 -11 173 -89 348 -173 345
-167 346 -167 346 -91 0 38 -3 41 -67 83 -120 77 -635 346 -663 346 -5 0 -12
-11 -16 -24z"/>
<path d="M6911 7879 c-21 -95 -18 -101 52 -133 247 -112 643 -264 655 -251 3
3 7 29 10 58 l4 52 -128 67 c-140 72 -332 158 -486 218 l-97 38 -10 -49z"/>
<path d="M6846 7511 c-9 -16 -16 -48 -16 -69 l0 -39 123 -56 c197 -90 474
-197 509 -197 12 0 2 85 -14 113 -24 45 -281 184 -433 235 -145 48 -151 48
-169 13z"/>
<path d="M6823 7143 c-12 -45 -7 -133 9 -149 17 -18 138 -71 398 -175 221 -89
220 -89 220 8 l0 52 -72 41 c-114 64 -302 154 -427 204 -62 25 -115 46 -117
46 -2 0 -7 -12 -11 -27z"/>
<path d="M6745 6726 c-11 -58 -3 -79 40 -103 50 -28 205 -79 267 -88 42 -6 50
-4 72 18 14 15 26 32 26 40 0 8 -26 26 -57 40 -58 25 -326 127 -337 127 -3 0
-8 -15 -11 -34z"/>
<path d="M2931 5734 c-63 -80 -111 -457 -91 -707 11 -137 20 -148 132 -167
136 -23 642 4 851 46 174 35 333 106 472 212 142 108 248 248 249 330 1 95
-150 146 -501 172 -352 25 -434 32 -543 46 -136 17 -318 47 -449 74 -52 11
-95 20 -97 20 -1 0 -12 -12 -23 -26z"/>
<path d="M6198 5620 c-103 -12 -151 -26 -173 -50 -18 -19 -18 -23 -2 -73 54
-171 324 -445 552 -559 163 -83 402 -124 659 -115 158 6 348 35 371 58 14 14
11 645 -3 680 -7 18 -21 28 -44 33 -33 7 -512 22 -1013 30 -148 3 -305 1 -347
-4z"/>
<path d="M5150 5433 c-93 -16 -287 -103 -460 -207 -49 -29 -201 -133 -338
-230 -138 -97 -297 -206 -354 -241 -146 -93 -336 -187 -453 -226 -97 -33 -104
-33 -265 -33 -150 0 -173 3 -255 28 -112 34 -198 73 -285 131 -37 25 -72 45
-77 45 -14 0 -59 -51 -78 -88 l-16 -34 39 -36 c81 -75 240 -154 385 -191 197
-51 432 -54 590 -7 200 60 391 166 912 506 417 273 572 357 708 387 68 15 79
15 151 -1 97 -22 296 -122 458 -229 64 -43 271 -192 460 -332 188 -140 378
-275 422 -302 89 -53 177 -85 304 -109 192 -36 573 3 588 60 6 27 -12 146 -25
159 -7 7 -61 4 -157 -8 -171 -21 -269 -16 -394 18 -254 71 -493 208 -942 540
-393 290 -502 358 -634 392 -54 14 -220 19 -284 8z"/>
<path d="M7767 3639 c-40 -31 -38 -89 4 -126 56 -51 202 -151 279 -192 l77
-41 21 23 c11 12 25 35 31 50 21 54 14 72 -41 115 -112 85 -250 165 -324 186
-13 4 -30 -1 -47 -15z"/>
<path d="M2315 3597 c-88 -47 -215 -130 -257 -170 -27 -25 -27 -26 -12 -70 8
-24 26 -55 39 -67 l24 -22 91 52 c90 51 230 150 270 190 24 24 26 76 4 108
-23 33 -67 28 -159 -21z"/>
<path d="M7610 3360 c-31 -31 -27 -84 11 -117 56 -51 202 -151 280 -192 l78
-42 20 22 c11 12 28 43 38 67 l17 45 -35 29 c-103 89 -310 208 -359 208 -17 0
-39 -9 -50 -20z"/>
<path d="M2463 3325 c-127 -65 -277 -176 -281 -206 -2 -27 34 -97 60 -112 19
-12 131 48 258 139 146 104 166 138 119 198 -28 36 -54 33 -156 -19z"/>
<path d="M5921 3351 c-14 -14 -21 -34 -21 -60 0 -34 6 -45 43 -76 103 -89 325
-222 353 -211 18 7 54 80 54 110 0 28 -43 66 -163 144 -92 60 -170 99 -213
108 -25 5 -37 1 -53 -15z"/>
<path d="M5775 3076 c-17 -17 -25 -36 -25 -60 0 -31 8 -42 63 -87 72 -61 198
-145 276 -184 l55 -27 17 21 c10 12 25 42 35 68 l18 46 -40 34 c-82 72 -285
193 -347 207 -21 5 -33 1 -52 -18z"/>
<path d="M5042 2940 c-73 -14 -169 -47 -222 -77 -135 -78 -225 -173 -358 -378
-125 -193 -161 -225 -249 -225 -64 0 -119 16 -303 87 -336 131 -459 159 -624
142 -174 -18 -336 -92 -463 -212 -108 -102 -169 -197 -213 -327 -30 -89 -30
-247 0 -356 72 -264 285 -435 609 -489 82 -14 138 -17 260 -12 183 7 311 31
566 107 93 27 178 50 189 50 11 0 34 -13 51 -29 52 -50 179 -136 272 -184 163
-84 322 -128 528 -146 220 -20 367 -8 515 39 114 37 261 116 355 191 l89 72
95 -7 c52 -4 135 -15 185 -26 483 -104 825 -116 1032 -39 189 71 335 216 386
384 27 87 29 220 4 315 -30 115 -101 247 -170 316 -111 111 -224 152 -441 161
-120 4 -175 1 -390 -27 -271 -35 -424 -37 -482 -6 -15 8 -93 83 -172 167 -260
272 -466 414 -707 484 -100 29 -254 40 -342 25z m326 -213 c117 -49 200 -114
437 -347 128 -126 246 -234 267 -243 89 -42 232 -47 602 -21 363 25 574 9 687
-53 134 -73 220 -235 206 -388 -31 -312 -213 -464 -557 -465 -180 0 -375 39
-695 140 -71 22 -159 46 -195 52 -62 10 -68 10 -115 -15 -27 -14 -117 -73
-200 -131 -165 -116 -298 -188 -390 -211 -35 -9 -105 -15 -170 -15 -260 0
-516 81 -680 215 -140 115 -271 195 -320 195 -19 0 -118 -27 -220 -60 -280
-90 -468 -120 -645 -101 -263 29 -432 126 -518 299 -33 67 -37 84 -40 171 -6
147 26 250 117 371 89 120 224 190 364 190 79 0 169 -28 477 -148 210 -82 318
-113 422 -119 142 -9 172 13 376 283 195 257 332 374 495 419 81 23 217 15
295 -18z"/>
<path d="M5112 2383 c-114 -5 -108 5 -124 -207 l-12 -151 -103 9 c-63 6 -107
6 -112 0 -11 -12 -40 -292 -44 -419 l-2 -100 40 -13 c22 -7 74 -18 116 -24
l76 -11 7 -60 c3 -33 6 -79 6 -103 l0 -43 48 -8 c26 -4 112 -8 192 -8 80 0
166 4 193 8 l47 8 0 122 0 122 131 22 c72 11 133 24 137 28 9 9 9 431 0 441
-4 4 -72 12 -150 17 l-143 10 -2 141 c-3 178 -7 202 -36 209 -37 9 -166 14
-265 10z"/>
<path d="M3368 2066 c-124 -34 -240 -165 -255 -285 -9 -82 18 -144 101 -227
82 -82 132 -104 235 -104 169 0 306 153 287 319 -23 194 -206 342 -368 297z"/>
<path d="M6913 1970 c-71 -36 -145 -111 -176 -178 -30 -66 -29 -162 2 -221 32
-61 115 -139 181 -170 63 -29 158 -35 223 -12 61 21 132 84 161 144 38 78 43
140 17 224 -62 200 -244 295 -408 213z"/>
<path d="M3722 2888 c-50 -55 -48 -63 53 -189 51 -63 107 -127 125 -142 l32
-27 41 22 c72 41 71 42 -41 176 -90 107 -165 182 -183 182 -3 0 -15 -10 -27
-22z"/>
<path d="M6438 2743 c-28 -27 -71 -74 -94 -106 -48 -65 -48 -69 5 -126 27 -29
33 -31 53 -20 48 24 130 94 169 142 50 64 51 100 0 134 -50 34 -75 29 -133
-24z"/>
</g>
</svg>
